<svg width="78" height="24" viewBox="0 0 78 24" fill="none" xmlns="http://www.w3.org/2000/svg">
<path d="M21.7 6C21.7 7.41667 21.2 8.64167 20.2 9.675C19.2 10.6917 17.7417 11.425 15.825 11.875C16.8583 12.1583 17.6417 12.625 18.175 13.275C18.7083 13.9083 18.975 14.6417 18.975 15.475C18.975 16.7917 18.5583 17.9333 17.725 18.9C16.9083 19.8667 15.7083 20.6167 14.125 21.15C12.5417 21.6667 10.6333 21.925 8.4 21.925C7.56667 21.925 6.9 21.9 6.4 21.85C6.38333 22.3167 6.18333 22.6667 5.8 22.9C5.41667 23.1333 4.925 23.25 4.325 23.25C3.725 23.25 3.30833 23.1167 3.075 22.85C2.85833 22.5833 2.76667 22.1917 2.8 21.675C2.95 19.3417 3.24167 16.9 3.675 14.35C4.10833 11.7833 4.65833 9.30833 5.325 6.925C5.44167 6.50833 5.675 6.21667 6.025 6.05C6.375 5.88333 6.83333 5.8 7.4 5.8C8.41667 5.8 8.925 6.08333 8.925 6.65C8.925 6.88333 8.875 7.15 8.775 7.45C8.34167 8.75 7.90833 10.5167 7.475 12.75C7.04167 14.9667 6.73333 17.0833 6.55 19.1C7.35 19.1667 8 19.2 8.5 19.2C10.8333 19.2 12.5417 18.8667 13.625 18.2C14.725 17.5167 15.275 16.65 15.275 15.6C15.275 14.8667 14.9583 14.25 14.325 13.75C13.7083 13.25 12.6667 12.975 11.2 12.925C10.8667 12.9083 10.6333 12.825 10.5 12.675C10.3667 12.525 10.3 12.2833 10.3 11.95C10.3 11.4667 10.4 11.075 10.6 10.775C10.8 10.475 11.1667 10.3167 11.7 10.3C12.8833 10.2667 13.95 10.0917 14.9 9.775C15.8667 9.45833 16.625 9.01667 17.175 8.45C17.725 7.86667 18 7.19167 18 6.425C18 5.45833 17.525 4.7 16.575 4.15C15.625 3.58333 14.1667 3.3 12.2 3.3C10.4167 3.3 8.69167 3.53333 7.025 4C5.35833 4.45 3.94167 5.025 2.775 5.725C2.24167 6.04167 1.79167 6.2 1.425 6.2C1.125 6.2 0.891667 6.1 0.725 5.9C0.575 5.68333 0.5 5.41667 0.5 5.1C0.5 4.68333 0.583333 4.325 0.75 4.025C0.933333 3.725 1.35833 3.38333 2.025 3C3.425 2.2 5.06667 1.575 6.95 1.125C8.83333 0.674999 10.7583 0.449999 12.725 0.449999C15.7417 0.449999 17.9917 0.958332 19.475 1.975C20.9583 2.99167 21.7 4.33333 21.7 6ZM23.9527 22.125C22.9194 22.125 22.0944 21.75 21.4777 21C20.8611 20.25 20.5527 19.2667 20.5527 18.05C20.5527 16.7167 20.8611 15.4583 21.4777 14.275C22.0944 13.075 22.9111 12.1167 23.9277 11.4C24.9611 10.6667 26.0527 10.3 27.2027 10.3C27.5694 10.3 27.8111 10.375 27.9277 10.525C28.0611 10.6583 28.1694 10.9083 28.2527 11.275C28.6027 11.2083 28.9694 11.175 29.3527 11.175C30.1694 11.175 30.5777 11.4667 30.5777 12.05C30.5777 12.4 30.4527 13.2333 30.2027 14.55C29.8194 16.4667 29.6277 17.8 29.6277 18.55C29.6277 18.8 29.6861 19 29.8027 19.15C29.9361 19.3 30.1027 19.375 30.3027 19.375C30.6194 19.375 31.0027 19.175 31.4527 18.775C31.9027 18.3583 32.5111 17.6917 33.2777 16.775C33.4777 16.5417 33.7027 16.425 33.9527 16.425C34.1694 16.425 34.3361 16.525 34.4527 16.725C34.5861 16.925 34.6527 17.2 34.6527 17.55C34.6527 18.2167 34.4944 18.7333 34.1777 19.1C33.4944 19.95 32.7694 20.6667 32.0027 21.25C31.2361 21.8333 30.4944 22.125 29.7777 22.125C29.2277 22.125 28.7194 21.9417 28.2527 21.575C27.8027 21.1917 27.4611 20.675 27.2277 20.025C26.3611 21.425 25.2694 22.125 23.9527 22.125ZM24.8527 19.6C25.2194 19.6 25.5694 19.3833 25.9027 18.95C26.2361 18.5167 26.4777 17.9417 26.6277 17.225L27.5527 12.625C26.8527 12.6417 26.2027 12.9083 25.6027 13.425C25.0194 13.925 24.5527 14.5917 24.2027 15.425C23.8527 16.2583 23.6777 17.1417 23.6777 18.075C23.6777 18.5917 23.7777 18.975 23.9777 19.225C24.1944 19.475 24.4861 19.6 24.8527 19.6ZM37.3959 22.125C35.7626 22.125 34.4876 21.6667 33.5709 20.75C32.6709 19.8167 32.2209 18.5917 32.2209 17.075C32.2209 15.725 32.4876 14.5417 33.0209 13.525C33.5542 12.5083 34.2459 11.725 35.0959 11.175C35.9459 10.625 36.8376 10.35 37.7709 10.35C38.6876 10.35 39.3959 10.625 39.8959 11.175C40.4126 11.7083 40.6709 12.4 40.6709 13.25C40.6709 13.95 40.5126 14.5417 40.1959 15.025C39.8959 15.5083 39.4959 15.75 38.9959 15.75C38.6792 15.75 38.4209 15.675 38.2209 15.525C38.0376 15.375 37.9459 15.1667 37.9459 14.9C37.9459 14.7833 37.9626 14.65 37.9959 14.5C38.0292 14.35 38.0542 14.2417 38.0709 14.175C38.1542 13.925 38.1959 13.6917 38.1959 13.475C38.1959 13.2583 38.1376 13.0917 38.0209 12.975C37.9209 12.8583 37.7709 12.8 37.5709 12.8C37.1876 12.8 36.8292 12.975 36.4959 13.325C36.1626 13.6583 35.8959 14.1167 35.6959 14.7C35.4959 15.2833 35.3959 15.925 35.3959 16.625C35.3959 18.5583 36.2376 19.525 37.9209 19.525C38.6042 19.525 39.3376 19.3 40.1209 18.85C40.9209 18.3833 41.7042 17.6917 42.4709 16.775C42.6709 16.5417 42.8959 16.425 43.1459 16.425C43.3626 16.425 43.5292 16.525 43.6459 16.725C43.7792 16.925 43.8459 17.2 43.8459 17.55C43.8459 18.1833 43.6876 18.7 43.3709 19.1C42.5876 20.0667 41.6459 20.8167 40.5459 21.35C39.4626 21.8667 38.4126 22.125 37.3959 22.125ZM46.475 22.675C45.6083 22.675 44.9417 22.475 44.475 22.075C44.025 21.675 43.8 21.225 43.8 20.725C43.8 20.2917 43.9583 19.9167 44.275 19.6C44.5917 19.2833 45.0583 19.125 45.675 19.125C45.8917 19.125 46.1417 19.15 46.425 19.2C46.725 19.2333 46.95 19.2583 47.1 19.275C47.0833 18.8417 46.9833 18.4333 46.8 18.05C46.6333 17.6667 46.4167 17.3 46.15 16.95C45.8833 16.5833 45.6333 16.2667 45.4 16C44.8833 16.9833 44.3667 17.8 43.85 18.45C43.35 19.1 42.8 19.7167 42.2 20.3C41.9 20.6 41.5833 20.75 41.25 20.75C40.9833 20.75 40.7667 20.6583 40.6 20.475C40.4333 20.275 40.35 20.0333 40.35 19.75C40.35 19.4167 40.4667 19.1083 40.7 18.825L41.025 18.425C41.9417 17.2917 42.6333 16.3583 43.1 15.625C43.3833 15.1417 43.7167 14.5 44.1 13.7C44.4833 12.8833 44.8583 12.0417 45.225 11.175C45.5417 10.4417 46.2 10.075 47.2 10.075C47.6667 10.075 47.9917 10.1167 48.175 10.2C48.3583 10.2833 48.45 10.4167 48.45 10.6C48.45 10.7 48.4167 10.8583 48.35 11.075C48.2833 11.2917 48.1917 11.5083 48.075 11.725C47.775 12.325 47.625 12.8333 47.625 13.25C47.625 13.5 47.7083 13.775 47.875 14.075C48.0583 14.375 48.3333 14.75 48.7 15.2C49.2333 15.9 49.6333 16.5 49.9 17C50.1833 17.4833 50.325 18.0167 50.325 18.6C50.325 18.7667 50.3083 19 50.275 19.3C51.0917 18.9833 52.05 18.1417 53.15 16.775C53.35 16.5417 53.575 16.425 53.825 16.425C54.0417 16.425 54.2083 16.525 54.325 16.725C54.4583 16.925 54.525 17.2 54.525 17.55C54.525 18.1833 54.3667 18.7 54.05 19.1C53.2167 20.1333 52.4167 20.8417 51.65 21.225C50.9 21.5917 49.9667 21.7917 48.85 21.825C48.1833 22.3917 47.3917 22.675 46.475 22.675ZM55.7689 8.7C55.0689 8.7 54.5439 8.54167 54.1939 8.225C53.8439 7.89167 53.6689 7.43333 53.6689 6.85C53.6689 6.26667 53.8939 5.78333 54.3439 5.4C54.8106 5 55.3856 4.8 56.0689 4.8C56.6856 4.8 57.1856 4.95 57.5689 5.25C57.9523 5.55 58.1439 5.975 58.1439 6.525C58.1439 7.19167 57.9273 7.725 57.4939 8.125C57.0606 8.50833 56.4856 8.7 55.7689 8.7ZM55.5689 22.125C54.4856 22.125 53.6939 21.7417 53.1939 20.975C52.7106 20.2083 52.4689 19.1917 52.4689 17.925C52.4689 17.175 52.5606 16.2167 52.7439 15.05C52.9439 13.8667 53.1939 12.7667 53.4939 11.75C53.6439 11.2167 53.8439 10.85 54.0939 10.65C54.3439 10.45 54.7439 10.35 55.2939 10.35C56.1439 10.35 56.5689 10.6333 56.5689 11.2C56.5689 11.6167 56.4106 12.5833 56.0939 14.1C55.6939 15.9333 55.4939 17.175 55.4939 17.825C55.4939 18.325 55.5606 18.7083 55.6939 18.975C55.8273 19.2417 56.0523 19.375 56.3689 19.375C56.6689 19.375 57.0439 19.1667 57.4939 18.75C57.9439 18.3333 58.5439 17.675 59.2939 16.775C59.4939 16.5417 59.7189 16.425 59.9689 16.425C60.1856 16.425 60.3523 16.525 60.4689 16.725C60.6023 16.925 60.6689 17.2 60.6689 17.55C60.6689 18.2167 60.5106 18.7333 60.1939 19.1C58.5439 21.1167 57.0023 22.125 55.5689 22.125ZM76.3213 17.45C76.5713 17.35 76.7796 17.3 76.9463 17.3C77.213 17.3 77.413 17.4 77.5463 17.6C77.6796 17.8 77.7463 18.0583 77.7463 18.375C77.7463 18.875 77.6213 19.3 77.3713 19.65C77.138 20 76.7296 20.3167 76.1463 20.6C75.163 21.0667 73.888 21.4417 72.3213 21.725C70.7546 21.9917 69.213 22.125 67.6963 22.125C65.5963 22.125 63.838 21.8917 62.4213 21.425C61.0046 20.9417 59.9463 20.2833 59.2463 19.45C58.563 18.6167 58.2213 17.675 58.2213 16.625C58.2213 15.1917 58.6796 13.975 59.5963 12.975C60.5296 11.9583 61.8963 11.225 63.6963 10.775C62.713 10.4917 61.9546 9.99167 61.4213 9.275C60.9046 8.55833 60.6463 7.75833 60.6463 6.875C60.6463 5.675 61.0213 4.61667 61.7713 3.7C62.538 2.76667 63.563 2.05 64.8463 1.55C66.1296 1.05 67.538 0.799999 69.0713 0.799999C71.138 0.799999 72.688 1.25 73.7213 2.15C74.7546 3.03333 75.2713 4.18333 75.2713 5.6C75.2713 6.58333 75.088 7.38333 74.7213 8C74.3713 8.6 73.863 8.9 73.1963 8.9C72.7296 8.9 72.363 8.8 72.0963 8.6C71.8296 8.38333 71.6963 8.06667 71.6963 7.65C71.6963 7.36667 71.738 7.05833 71.8213 6.725C71.9046 6.175 71.9463 5.8 71.9463 5.6C71.9463 5 71.7213 4.51667 71.2713 4.15C70.8213 3.76667 70.0713 3.575 69.0213 3.575C67.6046 3.575 66.4713 3.875 65.6213 4.475C64.7713 5.075 64.3463 5.88333 64.3463 6.9C64.3463 7.68333 64.663 8.33333 65.2963 8.85C65.9463 9.35 66.9963 9.625 68.4463 9.675C68.813 9.69167 69.0713 9.775 69.2213 9.925C69.3713 10.075 69.4463 10.325 69.4463 10.675C69.4463 11.775 68.9463 12.3333 67.9463 12.35C66.563 12.3833 65.413 12.575 64.4963 12.925C63.5963 13.275 62.938 13.725 62.5213 14.275C62.1213 14.8083 61.9213 15.3833 61.9213 16C61.9213 17.0333 62.4046 17.8167 63.3713 18.35C64.338 18.8667 65.8713 19.125 67.9713 19.125C69.3546 19.125 70.813 18.9667 72.3463 18.65C73.8963 18.3167 75.2213 17.9167 76.3213 17.45Z" fill="url(#paint0_linear_4_159)"/>
<defs>
<linearGradient id="paint0_linear_4_159" x1="0" y1="11" x2="75" y2="11" gradientUnits="userSpaceOnUse">
<stop stop-color="#01D3DC"/>
<stop offset="1" stop-color="#3478FF"/>
</linearGradient>
</defs>
</svg>
